<?xml version="1.0" encoding="UTF-8"?>
<svg id="Layer_1" xmlns="http://www.w3.org/2000/svg" xmlns:xlink="http://www.w3.org/1999/xlink" viewBox="0 0 100 75.14">
  <defs>
    <style>
      .cls-1 {
        fill: url(#linear-gradient-2);
      }

      .cls-2 {
        fill: #0c0c0c;
      }

      .cls-3 {
        fill: url(#linear-gradient-3);
      }

      .cls-4 {
        fill: #a0a0a0;
      }

      .cls-5 {
        fill: #bfbfbf;
      }

      .cls-6 {
        fill: url(#linear-gradient);
      }
    </style>
    <linearGradient id="linear-gradient" x1="92.97" y1="14.51" x2="93" y2="14.51" gradientUnits="userSpaceOnUse">
      <stop offset="0" stop-color="#fff"/>
      <stop offset="1" stop-color="#000"/>
    </linearGradient>
    <linearGradient id="linear-gradient-2" x1="79.21" y1="23.31" x2="79.21" y2="10.48" gradientUnits="userSpaceOnUse">
      <stop offset="0" stop-color="#ff6b43"/>
      <stop offset=".73" stop-color="#000"/>
    </linearGradient>
    <linearGradient id="linear-gradient-3" x1="-1635.93" y1="-730.18" x2="-1635.93" y2="-742.01" gradientTransform="translate(-1556.72 -697.7) rotate(-180)" xlink:href="#linear-gradient-2"/>
  </defs>
  <g>
    <rect class="cls-5" x="69.77" y="23.71" width="29.45" height="4.39" rx=".66" ry=".66"/>
    <path d="M18.84,39.87V14.33h56.59V2.78H13.92c-3.9,3.63-7.81,7.25-11.71,10.88v25.42c4.43,4.11,8.86,8.22,13.28,12.33h61.1v-11.54H18.84Z"/>
    <path class="cls-6" d="M92.97,14.24c0,.18,0,.37.04.54h-.04v-.54Z"/>
    <polygon class="cls-1" points="85.87 2.78 72.55 2.78 72.55 16.8 76.19 23.64 82.11 23.64 85.87 16.59 85.87 2.78"/>
    <polygon class="cls-3" points="72.55 51.41 85.87 51.41 85.87 38.48 82.23 32.18 76.31 32.18 72.55 38.68 72.55 51.41"/>
    <rect class="cls-4" x="58.26" y="28.34" width="31.81" height="4.15" rx=".66" ry=".66"/>
  </g>
  <g>
    <path class="cls-2" d="M16.95,68.7l-1.18,2.11h-2.77l6.12-10.68h3.34l6.02,10.68h-2.69l-1.22-2.11h-7.62ZM20.75,61.86l-2.87,5.11h5.76l-2.9-5.11Z"/>
    <path class="cls-2" d="M35.47,62.13h-5.03v-2h12.5v2h-5.01v8.68h-2.46v-8.68Z"/>
    <path class="cls-2" d="M61.27,61.08c.45.5.69,1.18.79,2.26.05.5.06,1.07.06,2.26,0,2.67-.26,3.7-1.07,4.42-.59.51-1.39.77-2.74.85-.51.03-2.45.06-3.94.06-3.27,0-4.15-.1-5.06-.59-.71-.38-1.17-1.12-1.31-2.18-.1-.7-.13-1.28-.13-3.03,0-2.5.24-3.49,1.01-4.16.58-.51,1.33-.75,2.71-.86.54-.05,2.14-.08,4.1-.08,3.78,0,4.79.19,5.59,1.06ZM50.39,65.48c0,2.08.16,2.75.75,3.06.59.32,1.1.37,4.16.37,2.75,0,3.44-.11,3.87-.59.37-.4.48-1.09.48-2.9,0-3.34-.03-3.38-4.64-3.38s-4.63.05-4.63,3.44Z"/>
    <path class="cls-2" d="M67.9,60.13h3.81l5.03,8.04,5.01-8.04h3.76v10.68h-2.42l.1-8.79-5.52,8.79h-1.94l-5.49-8.79.06,8.79h-2.4v-10.68Z"/>
  </g>
</svg>