<?xml version="1.0" encoding="UTF-8"?>
<svg version="1.1" xmlns="http://www.w3.org/2000/svg" width="225" height="225">
<path d="M0 0 C74.25 0 148.5 0 225 0 C225 74.25 225 148.5 225 225 C150.75 225 76.5 225 0 225 C0 150.75 0 76.5 0 0 Z " fill="#4B297A" transform="translate(0,0)"/>
<path d="M0 0 C16.44325589 12.95737738 28.59101267 30.90239214 31.86328125 51.83203125 C33.6524947 74.6454901 29.89008224 95.49326344 15.48828125 113.76953125 C3.91428844 126.96309302 -9.25896604 135.80958581 -26.13671875 140.83203125 C-27.34585938 141.198125 -28.555 141.56421875 -29.80078125 141.94140625 C-50.509659 146.95437773 -72.32080271 141.68883037 -90.13671875 130.83203125 C-106.53531765 119.49800585 -117.47287189 103.86519106 -123.13671875 84.83203125 C-123.5028125 83.62289062 -123.86890625 82.41375 -124.24609375 81.16796875 C-129.26155611 60.44880105 -123.98389028 38.65996028 -113.13671875 20.83203125 C-100.6457902 2.66756739 -83.06879984 -8.83014028 -61.77124023 -13.70996094 C-39.85996632 -17.51920474 -18.16594326 -12.55553987 0 0 Z " fill="#FDFDFD" transform="translate(159.13671875,48.16796875)"/>
<path d="M0 0 C74.25 0 148.5 0 225 0 C225 74.25 225 148.5 225 225 C150.75 225 76.5 225 0 225 C0 150.75 0 76.5 0 0 Z M43 32 C42.38898437 32.47824219 41.77796875 32.95648438 41.1484375 33.44921875 C27.46343304 44.3534803 18.146162 60.90102082 12 77 C11.68289062 77.79921875 11.36578125 78.5984375 11.0390625 79.421875 C7.13378323 90.01639501 6.67283803 101.32437431 6.75 112.5 C6.74226562 113.62019531 6.73453125 114.74039063 6.7265625 115.89453125 C6.753591 127.61138589 8.23765848 138.4558561 12.5625 149.375 C12.91546143 150.27492676 13.26842285 151.17485352 13.63208008 152.10205078 C24.03789989 177.80193124 43.62661616 198.93867564 69.2890625 209.98535156 C71.74246037 210.98623534 74.20732719 211.9425196 76.6875 212.875 C77.82674927 213.30474121 77.82674927 213.30474121 78.98901367 213.74316406 C89.75364005 217.58693011 100.1255328 218.32086895 111.5 218.25 C112.74136719 218.25773438 113.98273438 218.26546875 115.26171875 218.2734375 C140.42142244 218.22041389 162.85821431 208.98625971 182 193 C182.52198975 192.57444824 183.04397949 192.14889648 183.58178711 191.71044922 C201.73903178 176.84201097 215.276764 151.76856447 217.82788086 128.36669922 C219.0062196 112.16412366 219.44671666 95.47380346 214 80 C213.75862305 79.3002002 213.51724609 78.60040039 213.26855469 77.87939453 C207.95086848 62.89288389 200.1301434 50.4149699 189 39 C188.175 38.13375 187.35 37.2675 186.5 36.375 C185.675 35.59125 184.85 34.8075 184 34 C183.12214844 33.12988281 183.12214844 33.12988281 182.2265625 32.2421875 C168.6517282 19.37385015 151.14482526 11.80986512 133 8 C132.25097412 7.82799072 131.50194824 7.65598145 130.73022461 7.47875977 C99.11663224 1.93514404 67.06893407 11.36327855 43 32 Z " fill="#FDFDFD" transform="translate(0,0)"/>
<path d="M0 0 C8.08529648 5.32602864 16.26876716 12.84450317 18.4609375 22.62109375 C14.27438685 22.85465306 10.08951876 22.99592012 5.8984375 23.12109375 C4.12629883 23.22164062 4.12629883 23.22164062 2.31835938 23.32421875 C-6.36060693 23.51870539 -6.36060693 23.51870539 -9.8112793 20.89038086 C-11.6484375 18.7421875 -11.6484375 18.7421875 -13.12011719 16.59155273 C-16.05149464 12.52081161 -20.69061538 10.54915071 -25.5390625 9.62109375 C-35.90267407 8.90825274 -43.06084665 9.57779435 -51.2265625 16.12109375 C-58.38890784 22.97364907 -61.00978114 30.30343241 -61.2265625 40.05859375 C-61.11738183 48.96321169 -58.5818603 56.05559078 -52.60546875 62.8046875 C-45.03053833 69.90710764 -38.52904868 71.27041228 -28.26953125 71.02734375 C-19.70624388 70.09479727 -14.28879682 66.11055489 -8.9140625 59.5859375 C-7.29045969 57.36791589 -7.29045969 57.36791589 -5.5390625 53.62109375 C3.0409375 53.62109375 11.6209375 53.62109375 20.4609375 53.62109375 C14.00753677 69.75459557 5.00207555 78.44394328 -10.60546875 85.578125 C-23.5302142 90.1732076 -40.08779831 91.09539895 -52.91015625 85.87890625 C-53.77769531 85.46382813 -54.64523438 85.04875 -55.5390625 84.62109375 C-56.47878906 84.18539062 -57.41851562 83.7496875 -58.38671875 83.30078125 C-70.66826713 77.1177734 -79.8568559 67.91379167 -84.4140625 54.74609375 C-87.95423185 42.96046667 -87.2805338 32.00062488 -82.5390625 20.62109375 C-80.78012838 17.40200336 -78.78537313 14.5159455 -76.5390625 11.62109375 C-75.7965625 10.58984375 -75.0540625 9.55859375 -74.2890625 8.49609375 C-54.84171993 -11.83521893 -23.62685439 -13.89203609 0 0 Z " fill="#4C2A7A" transform="translate(144.5390625,72.37890625)"/>
</svg>
