<svg width="157" height="36" viewBox="0 0 157 36" fill="none" xmlns="http://www.w3.org/2000/svg">
<path d="M115.897 13.3277C117.052 13.3513 118.48 13.2877 119.907 13.359C120.086 13.3678 120.265 13.3934 120.441 13.4294C121.485 13.6429 121.961 14.17 122.098 15.2904C122.139 15.6282 122.126 15.9726 122.148 16.3134C122.157 16.4478 122.1 16.4884 121.979 16.5115C121.342 16.6336 120.705 16.7594 120.069 16.8923C119.907 16.9262 119.885 16.861 119.887 16.7224C119.893 16.2954 119.882 15.8679 119.893 15.4408C119.897 15.272 119.863 15.2047 119.673 15.2052C116.962 15.2114 114.252 15.2109 111.542 15.2063C111.388 15.2063 111.338 15.2412 111.339 15.4039C111.344 17.9076 111.344 20.4107 111.339 22.9144C111.339 23.0818 111.397 23.1084 111.545 23.1084C114.256 23.1048 116.966 23.1043 119.676 23.1084C119.837 23.1084 119.896 23.0741 119.894 22.8985C119.884 22.0527 119.884 21.2068 119.894 20.361C119.896 20.1741 119.833 20.1341 119.66 20.1351C118.293 20.1408 116.924 20.1326 115.556 20.1444C115.328 20.1464 115.267 20.0894 115.278 19.8636C115.297 19.4201 115.289 18.9751 115.28 18.5312C115.277 18.3813 115.308 18.3254 115.475 18.3259C117.629 18.332 119.784 18.33 121.938 18.3289C122.056 18.3289 122.151 18.3187 122.149 18.4937C122.125 19.9457 122.187 21.3988 122.11 22.8498C122.097 23.0869 122.048 23.324 121.994 23.556C121.774 24.4937 121.097 24.873 120.214 24.9921C119.934 25.0296 119.653 25.0491 119.37 25.0486C116.874 25.047 114.377 25.0486 111.881 25.0455C111.625 25.0455 111.368 25.0275 111.114 24.9998C109.865 24.8638 109.282 24.2869 109.142 23.0463C109.11 22.7666 109.092 22.4843 109.091 22.203C109.087 20.1952 109.089 18.1873 109.089 16.1794C109.089 15.8114 109.116 15.446 109.182 15.0831C109.362 14.0858 109.858 13.5915 110.859 13.415C111.248 13.3467 111.641 13.3272 112.034 13.3272C113.231 13.3272 114.428 13.3272 115.898 13.3272L115.897 13.3277Z" fill="#DA2633"/>
<path d="M70.1572 19.1755C70.1572 17.3128 70.1614 15.4502 70.1521 13.5881C70.1511 13.3715 70.2142 13.3232 70.4221 13.3232C74.0216 13.3294 77.6206 13.3289 81.2201 13.3243C81.4095 13.3243 81.4901 13.354 81.4808 13.5717C81.4608 14.0321 81.4608 14.4945 81.4808 14.9554C81.4906 15.1812 81.41 15.2151 81.2067 15.2146C78.3771 15.2079 75.547 15.2131 72.7174 15.2043C72.4767 15.2038 72.3997 15.2516 72.4064 15.5067C72.4259 16.2668 72.4207 17.0275 72.4084 17.7876C72.4053 17.9847 72.4644 18.0268 72.6522 18.0257C74.3023 18.0186 75.9525 18.0216 77.6021 18.0216C77.8314 18.0216 77.946 18.1404 77.946 18.3778C77.946 18.7967 77.9326 19.2155 77.9516 19.6333C77.9614 19.8463 77.8834 19.8802 77.693 19.8791C76.0259 19.8725 74.3588 19.8791 72.6917 19.8704C72.4741 19.8694 72.4028 19.911 72.4069 20.1471C72.4233 21.0525 72.4212 21.9584 72.4079 22.8638C72.4048 23.0814 72.4685 23.1317 72.6784 23.1312C75.5424 23.1245 78.4064 23.1291 81.2704 23.1224C81.4916 23.1224 81.585 23.1584 81.5717 23.4099C81.5481 23.8615 81.5475 24.3163 81.5717 24.7674C81.585 25.0189 81.4911 25.0538 81.2709 25.0533C78.1759 25.0467 75.081 25.0487 71.9865 25.0487C71.4563 25.0487 70.9261 25.04 70.3964 25.0533C70.206 25.0579 70.1526 25.0102 70.1537 24.8141C70.1619 22.9346 70.1583 21.055 70.1583 19.1755H70.1572Z" fill="#DA2633"/>
<path d="M127.247 19.1733C127.247 17.3112 127.25 15.4491 127.242 13.587C127.241 13.3725 127.299 13.3165 127.511 13.3222C128.1 13.3376 128.69 13.3345 129.28 13.3232C129.463 13.3196 129.506 13.3776 129.505 13.5536C129.497 14.9461 129.506 16.3386 129.495 17.7306C129.494 17.9395 129.557 17.98 129.751 17.9795C132.452 17.9733 135.153 17.9728 137.854 17.9805C138.069 17.981 138.12 17.9225 138.119 17.7126C138.109 16.3376 138.119 14.962 138.108 13.587C138.107 13.3704 138.169 13.317 138.38 13.3227C138.969 13.3376 139.559 13.3314 140.149 13.3252C140.3 13.3237 140.375 13.3417 140.374 13.5295C140.368 17.3051 140.368 21.0806 140.373 24.8562C140.373 25.0225 140.317 25.0533 140.167 25.0517C139.561 25.0445 138.953 25.0399 138.347 25.0538C138.151 25.0584 138.108 25.0009 138.109 24.8125C138.117 23.2666 138.107 21.7201 138.12 20.1742C138.122 19.9396 138.054 19.8986 137.836 19.8991C135.143 19.9068 132.451 19.9068 129.758 19.8991C129.54 19.8986 129.494 19.9602 129.495 20.1691C129.505 21.7068 129.494 23.244 129.507 24.7817C129.509 25.0204 129.436 25.0599 129.222 25.0543C128.641 25.0399 128.06 25.0404 127.479 25.0543C127.283 25.0589 127.241 25.0009 127.242 24.812C127.249 22.933 127.246 21.0534 127.246 19.1744L127.247 19.1733Z" fill="#DA2633"/>
<path d="M42.7075 11.7915C43.4728 11.7915 44.2073 11.7962 44.9417 11.7879C45.1034 11.7859 45.1399 11.8932 45.1943 11.9958C46.1936 13.8779 47.1914 15.7611 48.1907 17.6432C49.1017 19.3596 50.0133 21.0754 50.9238 22.7902C51.0218 22.783 51.0188 22.6947 51.046 22.6414C52.8419 19.1086 54.6367 15.5748 56.4234 12.0374C56.5179 11.85 56.62 11.7813 56.8289 11.7864C57.451 11.8008 58.0735 11.7915 58.6874 11.7915C58.7331 11.8788 58.6725 11.9219 58.6469 11.9701C56.4065 16.2523 54.1635 20.5334 51.9257 24.8171C51.8364 24.988 51.7414 25.0635 51.5372 25.0547C51.0675 25.0352 50.5969 25.0419 50.1267 25.0527C49.9851 25.0558 49.9158 25.0044 49.8506 24.8859C47.4844 20.5539 45.1142 16.2241 42.7455 11.8937C42.7342 11.8726 42.7286 11.8485 42.7075 11.791V11.7915Z" fill="#DA2633"/>
<path d="M150.141 13.3274C152.166 13.3274 154.192 13.331 156.217 13.3223C156.433 13.3213 156.49 13.3808 156.483 13.5913C156.467 14.0604 156.467 14.531 156.483 15.0002C156.49 15.1957 156.432 15.2424 156.242 15.2414C154.695 15.2342 153.148 15.2373 151.601 15.2373C151.363 15.2373 151.243 15.3524 151.243 15.5827C151.243 18.6402 151.241 21.6982 151.248 24.7557C151.249 24.9785 151.21 25.0647 150.962 25.056C150.39 25.0349 149.817 25.039 149.245 25.055C149.032 25.0611 148.978 25.0062 148.979 24.7911C148.987 21.7506 148.984 18.71 148.984 15.6694C148.984 15.6181 148.977 15.5658 148.985 15.516C149.024 15.2932 148.939 15.2306 148.711 15.2321C147.156 15.2424 145.601 15.2337 144.045 15.2419C143.838 15.2429 143.765 15.1972 143.774 14.9781C143.792 14.5259 143.792 14.0722 143.774 13.6205C143.765 13.3906 143.822 13.3208 144.063 13.3218C146.089 13.3321 148.115 13.3279 150.14 13.3279L150.141 13.3274Z" fill="#DA2633"/>
<path d="M86.3911 18.3332C86.3911 16.1805 86.3947 14.0279 86.386 11.8753C86.385 11.6582 86.445 11.6058 86.6555 11.6115C87.219 11.6269 87.7841 11.6279 88.3477 11.6115C88.5689 11.6048 88.6084 11.6798 88.6084 11.884C88.6023 15.5569 88.6069 19.2303 88.5976 22.9032C88.5971 23.1553 88.6633 23.2066 88.9066 23.2061C91.6762 23.1968 94.4457 23.2025 97.2148 23.1953C97.4288 23.1948 97.512 23.2287 97.5002 23.4678C97.4771 23.9195 97.4848 24.3732 97.4976 24.8254C97.5027 25.0035 97.454 25.0528 97.2728 25.0528C93.7256 25.0471 90.178 25.0466 86.6308 25.0543C86.4122 25.0543 86.3875 24.9748 86.3881 24.7915C86.3932 22.6389 86.3916 20.4863 86.3916 18.3337L86.3911 18.3332Z" fill="#DA2633"/>
<path d="M64.611 19.2067C64.611 21.0601 64.6058 22.9135 64.6171 24.7669C64.6187 25.0101 64.5442 25.0594 64.3194 25.0533C63.7384 25.0379 63.1574 25.044 62.5759 25.0507C62.424 25.0522 62.3506 25.0332 62.3511 24.8474C62.3572 21.0724 62.3562 17.2968 62.3531 13.5218C62.3531 13.3858 62.3767 13.3221 62.5317 13.3237C63.1641 13.3309 63.7969 13.335 64.4288 13.3221C64.6433 13.3175 64.6105 13.4428 64.6105 13.569C64.6105 15.4481 64.6105 17.3271 64.6105 19.2062L64.611 19.2067Z" fill="#DA2633"/>
<path d="M101.441 19.2052C101.441 17.3256 101.444 15.4461 101.436 13.5665C101.435 13.3756 101.48 13.3191 101.674 13.3232C102.281 13.336 102.888 13.3324 103.496 13.3247C103.648 13.3227 103.7 13.3596 103.7 13.5229C103.696 17.2989 103.696 21.0755 103.7 24.8516C103.7 25.0081 103.662 25.0548 103.502 25.0528C102.887 25.043 102.271 25.041 101.655 25.0538C101.464 25.0579 101.438 24.9866 101.438 24.8187C101.444 22.9479 101.442 21.0765 101.442 19.2057L101.441 19.2052Z" fill="#DA2633"/>
<path d="M16.7075 20.1577C17.6831 20.2165 17.8848 20.7421 17.9964 21.4116C18.1623 22.404 18.43 23.3844 18.6642 24.4132C18.8994 24.1836 18.8517 23.9193 18.9081 23.6925C19.1249 22.812 19.32 21.9279 19.4967 21.0409C19.5747 20.6497 19.6875 20.3267 20.2306 20.2706C20.365 20.2566 20.4896 20.1745 20.7075 20.0876C20.0495 25.1228 19.3991 30.1038 18.7476 35.0848C18.7205 35.0858 18.6923 35.0867 18.6652 35.0876C18.0116 30.1066 17.359 25.1265 16.7075 20.1577Z" fill="#DA2633"/>
<path d="M36.7066 17.6207C31.7212 18.1097 26.7368 18.5978 21.744 19.0876C21.958 18.2971 21.959 18.3004 22.8424 18.1545C23.8697 17.9841 24.8962 17.8081 25.9282 17.5506C25.3925 17.4568 24.8578 17.3615 24.3222 17.2702C23.7576 17.1749 23.1948 17.0656 22.6264 16.9964C22.2366 16.9491 21.9552 16.8415 21.8861 16.4674C21.8646 16.3533 21.7851 16.2482 21.7075 16.0876C26.7368 16.5807 31.7203 17.0697 36.7047 17.5587C36.7047 17.5791 36.7066 17.6003 36.7075 17.6207H36.7066Z" fill="#DA2633"/>
<path d="M20.7075 15.0633C20.5914 15.0371 20.5578 15.0278 20.5242 15.0221C19.7539 14.8967 19.5022 14.4634 19.4111 13.8233C19.2798 12.8996 19.0249 11.9881 18.8209 11.0719C18.8025 10.9867 18.8285 10.8781 18.6549 10.836C18.4119 11.931 18.1494 13.0194 17.94 14.1153C17.8586 14.5392 17.7078 14.8425 17.1719 14.9183C17.0373 14.9379 16.9126 15.0109 16.7075 15.0876C17.366 10.0546 18.017 5.07392 18.6679 0.0923258C18.6951 0.0904541 18.7222 0.0895182 18.7482 0.0876465C19.3991 5.0655 20.0501 10.0433 20.7064 15.0624L20.7075 15.0633Z" fill="#DA2633"/>
<path d="M11.4758 17.6332C12.5578 17.8148 13.637 18.0127 14.7245 18.1691C15.1493 18.2302 15.4508 18.3442 15.5311 18.7456C15.5507 18.845 15.6272 18.9362 15.7075 19.0876C10.6758 18.5942 5.69538 18.1056 0.714984 17.617C0.712183 17.5958 0.71032 17.5746 0.70752 17.5534C5.67298 17.0657 10.6375 16.5771 15.617 16.0876C15.5189 16.6463 15.265 16.9639 14.5546 17.0339C13.5184 17.1357 12.499 17.3645 11.473 17.5388C11.4739 17.5697 11.4749 17.6015 11.4768 17.6324L11.4758 17.6332Z" fill="#DA2633"/>
</svg>
